<?xml version="1.0" encoding="UTF-8"?>
<svg id="Layer_1" xmlns="http://www.w3.org/2000/svg" version="1.1" viewBox="0 0 492 215">
  <!-- Generator: Adobe Illustrator 29.0.0, SVG Export Plug-In . SVG Version: 2.1.0 Build 186)  -->
  <defs>
    <style>
      .st0 {
        fill: #fff;
      }
    </style>
  </defs>
  <path class="st0" d="M20.5,212.7H2.2V2.7h60.3c2.8,0,4.7.5,5.7,1.5,1,1,1.5,2.9,1.5,5.7v202.8h-18.3V18.6h-6.3v194.1h-18.3V18.6h-6.3v194.1Z"/>
  <path class="st0" d="M119.2,9.9v195.6c0,2.8-.5,4.7-1.5,5.7-1,1-2.9,1.5-5.7,1.5h-28.5c-2.8,0-4.7-.5-5.7-1.5-1-1-1.5-2.9-1.5-5.7V9.9c0-2.8.5-4.7,1.5-5.7s2.9-1.5,5.7-1.5h28.5c2.8,0,4.7.5,5.7,1.5,1,1,1.5,2.9,1.5,5.7ZM94.6,196.8h6.3V18.6h-6.3v178.2Z"/>
  <path class="st0" d="M168.7,9.9v195.6c0,2.8-.5,4.7-1.5,5.7-1,1-2.9,1.5-5.7,1.5h-28.5c-2.8,0-4.7-.5-5.7-1.5-1-1-1.5-2.9-1.5-5.7V9.9c0-2.8.5-4.7,1.5-5.7s2.9-1.5,5.7-1.5h28.5c2.8,0,4.7.5,5.7,1.5,1,1,1.5,2.9,1.5,5.7ZM144.1,196.8h6.3V18.6h-6.3v178.2Z"/>
  <path class="st0" d="M193.6,212.7h-18.3V2.7h35.7c2.8,0,4.7.5,5.7,1.5,1,1,1.5,2.9,1.5,5.7v202.8h-18.3V18.6h-6.3v194.1Z"/>
  <path class="st0" d="M260.5,96h16.8c2.8,0,4.7.5,5.7,1.5,1,1,1.5,2.9,1.5,5.7v102.3c0,2.8-.5,4.7-1.5,5.7-1,1-2.9,1.5-5.7,1.5h-27.9c-2.8,0-4.7-.5-5.7-1.5-1-1-1.5-2.9-1.5-5.7v-87.3h17.7v78.6h6.3v-84.9h-16.8c-2.8,0-4.7-.5-5.7-1.5-1-1-1.5-2.9-1.5-5.7V9.9c0-2.8.5-4.7,1.5-5.7s2.9-1.5,5.7-1.5h27.9c2.8,0,4.7.5,5.7,1.5,1,1,1.5,2.9,1.5,5.7v79.8h-17.7V18.6h-6.3v77.4Z"/>
  <path class="st0" d="M313.6,18.6v194.1h-18.3V18.6h-7.5V2.7h33.3v15.9h-7.5Z"/>
  <path class="st0" d="M324.4,2.7h18.3v194.1h6.3V2.7h18v202.8c0,2.8-.6,4.7-1.7,5.7-1.1,1-3,1.5-5.5,1.5h-28.2c-2.8,0-4.7-.5-5.7-1.5-1-1-1.5-2.9-1.5-5.7V2.7Z"/>
  <path class="st0" d="M416.5,12.9v189.6c0,4-.7,6.7-2.1,8.1-1.4,1.4-4.1,2.1-8.1,2.1h-32.7V2.7h32.7c4,0,6.7.7,8.1,2.1,1.4,1.4,2.1,4.1,2.1,8.1ZM391.9,18.6v178.2h6.3V18.6h-6.3Z"/>
  <path class="st0" d="M441.4,2.7v210h-18.3V2.7h18.3Z"/>
  <path class="st0" d="M490.6,9.9v195.6c0,2.8-.5,4.7-1.5,5.7-1,1-2.9,1.5-5.7,1.5h-28.5c-2.8,0-4.7-.5-5.7-1.5-1-1-1.5-2.9-1.5-5.7V9.9c0-2.8.5-4.7,1.5-5.7,1-1,2.9-1.5,5.7-1.5h28.5c2.8,0,4.7.5,5.7,1.5,1,1,1.5,2.9,1.5,5.7ZM466,196.8h6.3V18.6h-6.3v178.2Z"/>
</svg>